<?xml version="1.0" encoding="UTF-8" standalone="no"?>
<svg
   width="16"
   height="16"
   viewBox="0 0 17 17"
   fill="none"
   version="1.1"
   xmlns="http://www.w3.org/2000/svg">
  <path
     d="m 14.75,17.5 h -12 C 2.02065,17.5 1.32118,17.2103 0.80546,16.6945 0.28973,16.1788 0,15.4793 0,14.75 v -12 C 0,2.02065 0.28973,1.32118 0.80546,0.80546 1.32118,0.28973 2.02065,0 2.75,0 h 6 C 8.9489,0 9.1397,0.07902 9.2803,0.21967 9.421,0.36032 9.5,0.55109 9.5,0.75 9.5,0.94891 9.421,1.13968 9.2803,1.28033 9.1397,1.42098 8.9489,1.5 8.75,1.5 h -6 C 2.41848,1.5 2.10054,1.6317 1.86612,1.86612 1.6317,2.10054 1.5,2.41848 1.5,2.75 v 12 c 0,0.3315 0.1317,0.6495 0.36612,0.8839 C 2.10054,15.8683 2.41848,16 2.75,16 h 12 c 0.3315,0 0.6495,-0.1317 0.8839,-0.3661 C 15.8683,15.3995 16,15.0815 16,14.75 v -6 C 16,8.5511 16.079,8.3603 16.2197,8.2197 16.3603,8.079 16.5511,8 16.75,8 16.9489,8 17.1397,8.079 17.2803,8.2197 17.421,8.3603 17.5,8.5511 17.5,8.75 v 6 c 0,0.7293 -0.2897,1.4288 -0.8055,1.9445 C 16.1788,17.2103 15.4793,17.5 14.75,17.5 Z"
     fill="currentColor"/>
  <path
     d="M 16.75,5.5 C 16.5519,5.49741 16.3626,5.41756 16.2225,5.27747 16.0824,5.13737 16.0026,4.94811 16,4.75 V 1.5 H 12.75 C 12.5511,1.5 12.3603,1.42098 12.2197,1.28033 12.079,1.13968 12,0.94891 12,0.75 12,0.55109 12.079,0.36032 12.2197,0.21967 12.3603,0.07902 12.5511,0 12.75,0 h 4 c 0.1981,0.00259 0.3874,0.08244 0.5275,0.22253 0.1401,0.1401 0.2199,0.32936 0.2225,0.52747 v 4 C 17.4974,4.94811 17.4176,5.13737 17.2775,5.27747 17.1374,5.41756 16.9481,5.49741 16.75,5.5 Z"
     fill="currentColor"/>
  <path
     d="M 10.25,8 C 10.0571,7.9852 9.8776,7.8955 9.75,7.75 9.627,7.6125 9.559,7.4345 9.559,7.25 9.559,7.0655 9.627,6.8875 9.75,6.75 l 6.5,-6.5 c 0.0687,-0.07369 0.1515,-0.13279 0.2435,-0.17378 0.092,-0.04099 0.1913,-0.06303 0.292,-0.06481 0.1007,-0.00178 0.2007,0.01675 0.2941,0.05447 0.0934,0.03772 0.1782,0.09386 0.2494,0.16508 0.0713,0.07122 0.1274,0.15605 0.1651,0.24944 0.0377,0.09339 0.0563,0.19342 0.0545,0.29412 -0.0018,0.10071 -0.0238,0.20002 -0.0648,0.29202 -0.041,0.092 -0.1001,0.1748 -0.1738,0.24346 L 10.75,7.75 C 10.6224,7.8955 10.4429,7.9852 10.25,8 Z"
     fill="currentColor"/>
</svg>
