<?xml version="1.0" encoding="UTF-8" standalone="no"?>
<svg
   version="1.1"
   width="100"
   height="100"
   id="svg2"
   xmlns="http://www.w3.org/2000/svg"
   xmlns:svg="http://www.w3.org/2000/svg">
  <defs
     id="defs2" />
  <path
     d="m 66.292969,5.4609375 c 2.87457,2.0629884 5.291587,4.0083192 7.480469,6.8046875 2.175815,2.099277 2.175815,2.099277 5.394531,1.46875 C 80.510305,13.416598 81.849961,13.087396 83.1875,12.75 105.15991,8.2366849 129.29689,10.066615 151,15 c 0.93924,0.208989 1.87849,0.417979 2.84619,0.633301 33.87734,7.719107 69.96832,21.791547 98.78662,41.452636 2.39705,1.168361 2.39705,1.168361 5.17188,0.355469 C 261.67864,55.693867 265.32146,53.685051 269,51.5625 309.29812,28.872491 354.04577,10.847099 400.875,10.75 c 1.101,-0.006 1.101,-0.006 2.22424,-0.01212 9.41188,-0.03639 18.58238,0.178019 27.73621,2.634186 2.10339,0.571532 2.10339,0.571532 5.16455,0.62793 2.78107,-2.166411 2.78107,-2.166411 5,-5.0000005 10.92875,-8.7997735 22.40034,-10.1518748 36,-9 10.9787,1.7357625 21.21941,8.25928 28,17.0000005 7.34524,12.450105 9.1154,25.229583 6.31641,39.480468 -2.26805,6.672396 -5.98393,12.911004 -11.58203,17.292969 -2.09928,2.175816 -2.09928,2.175816 -1.46875,5.394531 0.31777,1.342336 0.64698,2.681992 0.98437,4.019531 4.50969,21.954741 2.70803,46.129111 -2.25,67.812501 -0.21962,0.96583 -0.43925,1.93166 -0.66553,2.92676 -6.29429,26.96789 -16.71275,52.01796 -29.02197,76.76074 -0.78335,1.57516 -0.78335,1.57516 -1.58252,3.18213 -3.21238,6.36522 -6.68581,12.39872 -10.61597,18.3523 -1.42311,2.79026 -1.42311,2.79026 -0.40917,5.92578 1.52922,3.36775 3.29385,6.5459 5.17016,9.72729 23.11058,40.38873 41.26562,85.92008 41.375,133 0.005,0.73467 0.009,1.46933 0.0141,2.22626 0.0429,8.70059 -0.2781,16.99807 -2.20163,25.52374 -1.19915,4.91554 -1.19915,4.91554 0.12109,9.64844 1.77526,1.76764 1.77526,1.76764 3.82813,3.16406 5.31684,4.17826 7.48092,12.23292 8.98828,18.5625 0.28579,2.77752 0.33458,5.52174 0.3125,8.3125 -0.008,1.12257 -0.008,1.12257 -0.0171,2.26782 -0.26377,12.06434 -4.82705,21.88292 -13.04541,30.73218 -4.22305,4.00462 -8.88037,6.51609 -14.25,8.6875 -0.89074,0.3661 -1.78148,0.73219 -2.69922,1.10938 -10.67019,2.87906 -24.61472,2.34426 -34.30078,-3.10938 -3.72285,-2.37196 -7.0384,-4.74385 -9.73437,-8.26562 -2.25034,-2.12207 -2.25034,-2.12207 -5.72266,-1.46875 -1.45449,0.3161 -2.90614,0.64538 -4.35547,0.98437 -54.45334,10.5439 -115.52432,-12.01156 -161.59766,-39.85937 -0.64058,-0.38656 -1.28116,-0.77312 -1.94116,-1.17139 -1.62943,-1.00525 -3.23789,-2.0443 -4.84399,-3.08643 -2.76625,-1.41062 -2.76625,-1.41062 -5.71094,-0.58593 -3.59748,1.68972 -7.04265,3.57063 -10.46875,5.57812 -7.41261,4.25111 -14.93858,8.17117 -22.62598,11.8999 -1.95257,0.95245 -3.89383,1.92537 -5.83496,2.90088 -19.68727,9.7432 -40.75342,17.19272 -62.16406,22.07422 -0.8959,0.20883 -1.7918,0.41766 -2.71484,0.63281 -22.15259,4.9647 -46.93126,5.87588 -69.155765,0.9607 -2.972068,-0.57219 -4.664384,-0.83644 -7.39502,0.59009 -1.775603,1.77388 -1.775603,1.77388 -3.171875,3.82812 -4.178262,5.31684 -12.232914,7.48092 -18.5625,8.98828 -2.777514,0.28579 -5.521736,0.33458 -8.3125,0.3125 -1.122572,-0.008 -1.122572,-0.008 -2.267822,-0.0171 -12.015133,-0.26269 -21.796145,-4.80602 -30.669678,-12.92041 -9.866813,-10.36716 -11.225515,-21.824 -11.027343,-35.36328 0.358328,-9.59286 3.94869,-16.9078 10.277343,-24.01172 0.747656,-0.58523 1.495313,-1.17047 2.265625,-1.77344 2.099278,-2.17581 2.099278,-2.17581 1.46875,-5.39453 C 13.41652,431.4897 13.08732,430.15004 12.74996,428.81249 1.619694,374.57471 24.709686,312.6052 52.546835,266.71093 c 0.384705,-0.63631 0.769409,-1.27263 1.165772,-1.92822 1.017783,-1.64969 2.06728,-3.2797 3.119384,-4.90772 1.452392,-2.82975 1.452392,-2.82975 0.609375,-5.82031 -1.611699,-3.41558 -3.399544,-6.68009 -5.316406,-9.92969 -23.145177,-40.39529 -41.26558,-85.90487 -41.375,-133 -0.0047,-0.73466 -0.0093,-1.46933 -0.01413,-2.22625 -0.04287,-8.7006 0.278098,-16.998079 2.201629,-25.523751 1.199154,-4.915532 1.199154,-4.915532 -0.121093,-9.648437 C 11.041109,71.958911 11.041109,71.958911 8.988241,70.562489 3.673369,66.385773 1.50273,58.328838 -4.1e-5,51.999989 -1.671934,36.348478 1.677055,24.419729 11.519532,12.097656 24.597197,-2.4436898 50.057527,-4.8832795 66.292969,5.4609375 Z M 24,24 c -5.644894,6.091179 -7.663026,12.777838 -8,21 0.603466,7.096756 3.968423,13.324972 9.0625,18.1875 C 31.09739,67.974235 37.976918,70.438466 45.6875,70 54.408955,68.711603 59.661931,65.180273 65.300781,58.433593 69.225059,52.813307 70.731607,46.828333 70,40 68.213343,31.796264 64.254845,24.990331 57.3125,20.125 45.739879,13.609879 33.795829,15.437857 24,24 Z M 451.92578,22.023437 C 445.92326,28.184236 442.52009,34.695075 441.6875,43.1875 442.35071,51.278639 445.81922,58.661433 452,64 c 6.67062,4.466417 12.84791,6.980492 21,6 7.98711,-2.104541 14.68967,-6.13736 19.38281,-13.03125 3.55327,-6.858055 3.86673,-14.378594 1.85157,-21.78125 -2.68454,-7.158754 -6.18607,-12.198528 -12.83204,-16.109375 -10.16036,-4.559775 -20.77809,-4.132 -29.47656,2.945312 z M 85,30 c 0.2475,1.361249 0.2475,1.361249 0.5,2.75 1.759024,13.074533 0.101967,25.418515 -7.886718,36.261718 C 77.080899,69.667851 76.548516,70.323984 76,71 c -0.501445,0.625196 -1.00289,1.25039 -1.519531,1.894531 -7.281522,8.131918 -18.191509,12.625513 -28.976562,13.25 C 40.254621,86.232421 35.188396,85.768652 30,85 c -10.455396,53.20341 12.993331,108.69169 39,154 4.004373,-3.74695 6.986721,-7.68403 10,-12.25 14.325341,-21.25576 30.8969,-41.0658 48.31641,-59.84765 1.72953,-1.87052 3.44673,-3.75257 5.14843,-5.64844 5.88948,-6.54285 12.00772,-12.8317 18.22266,-19.06641 1.19399,-1.20088 1.19399,-1.20088 2.41211,-2.42602 4.23579,-4.22479 8.54977,-8.2891 13.08472,-12.19092 2.60367,-2.25218 5.10908,-4.59911 7.62817,-6.94556 4.59175,-4.23686 9.29704,-8.27906 14.16797,-12.19531 2.2262,-1.79133 4.43441,-3.59707 6.63281,-5.42188 9.13506,-7.554384 18.5449,-14.613936 28.21485,-21.46777 2.14468,-1.520761 4.28414,-3.048588 6.42187,-4.579102 C 232.49698,74.636367 235.74733,72.31661 239,70 206.89659,42.899716 151.06928,27.658148 109.6875,27.625 107.72998,27.6223 107.72998,27.6223 105.73291,27.6196 98.600995,27.70335 91.922439,28.242309 85,29.999971 Z m 257,8 c -0.83483,0.266835 -1.66966,0.533672 -2.52978,0.808593 C 316.21464,46.339745 294.3924,57.27814 273,69 c 3.74695,4.004373 7.68404,6.986722 12.25,10 21.25576,14.32534 41.0658,30.8969 59.84766,48.31641 1.87052,1.72954 3.75256,3.44673 5.64843,5.14844 6.54286,5.88947 12.83171,12.00771 19.06641,18.22265 1.20088,1.194 1.20088,1.194 2.42603,2.41211 4.22478,4.23579 8.2891,8.54978 12.19091,13.08472 2.25218,2.60367 4.59911,5.10909 6.94556,7.62817 4.23687,4.59175 8.27906,9.29704 12.19531,14.16797 1.79133,2.2262 3.59707,4.43441 5.42188,6.63281 7.55439,9.13506 14.61394,18.5449 21.46777,28.21485 1.52076,2.14468 3.04859,4.28414 4.5791,6.42187 2.32457,3.24698 4.64433,6.49734 6.96094,9.75 29.59747,-35.06161 45.19603,-97.03805 42,-142 -0.54358,-4.026759 -1.21654,-8.013308 -2,-12 -1.36125,0.247501 -1.36125,0.247501 -2.75,0.5 -13.21493,1.777912 -25.43637,0.0162 -36.39453,-8.007812 C 433.51735,69.982377 428.38855,60.697049 426,49 c -0.54673,-6.414455 -0.14984,-12.675854 1,-19 -28.78075,-5.655918 -57.43068,-0.883389 -85,8 z m -90.64062,44.273437 c -1.1007,0.734887 -1.1007,0.734887 -2.22364,1.484619 -1.18094,0.800387 -1.18094,0.800387 -2.38574,1.616944 -0.8105,0.545838 -1.62099,1.091674 -2.45605,1.654053 C 232.15685,95.236279 220.42158,103.8225 209,113 c -0.93457,0.75024 -1.86914,1.50047 -2.83203,2.27344 -14.70405,11.92685 -28.9668,24.3428 -42.25,37.84375 -1.62457,1.59479 -3.26162,3.03332 -5.04297,4.44531 -2.96165,2.51097 -5.31579,5.18499 -7.82422,8.13281 -2.4123,2.71097 -4.96724,5.25919 -7.55078,7.80469 -4.38373,4.33736 -8.51102,8.79899 -12.5,13.5 -0.90142,1.03857 -1.80385,2.07625 -2.70703,3.11328 -6.53226,7.52261 -12.839,15.18523 -18.90869,23.08594 -0.92083,1.19788 -1.84497,2.39322 -2.77246,3.58594 -6.797575,8.75155 -13.212502,17.76946 -19.48682,26.90234 -0.733073,1.04011 -1.466147,2.08023 -2.221435,3.15186 -0.666848,0.985 -1.333697,1.97001 -2.020752,2.98486 -0.604409,0.87745 -1.208819,1.7549 -1.831543,2.65894 -1.342874,2.49569 -1.342874,2.49569 -0.351807,5.14428 1.716037,3.13055 3.609235,6.10927 5.613037,9.06006 0.654884,0.97079 0.654884,0.97079 1.322998,1.96118 9.063393,13.34065 18.619372,26.19309 28.920162,38.60279 2.04808,2.47942 4.05428,4.99225 6.06934,7.49853 4.02234,4.91702 8.27339,9.58386 12.60156,14.23047 2.04251,2.19888 4.01265,4.44914 5.97046,6.72363 3.65276,4.18023 7.49381,8.13159 11.42407,12.04981 0.70359,0.70455 1.40719,1.4091 2.1321,2.13499 1.47696,1.47764 2.95516,2.95403 4.43455,4.42922 2.24391,2.23855 4.48243,4.48239 6.72046,6.7268 1.44565,1.44499 2.8916,2.88966 4.3379,4.33399 0.65858,0.66061 1.31717,1.32122 1.99571,2.00185 4.42566,4.40377 9.01963,8.55553 13.75819,12.61924 1.09419,0.95002 2.18801,1.90045 3.28125,2.85156 13.62314,11.76602 27.48137,23.08409 42.23731,33.41016 1.75268,1.22778 3.50026,2.46287 5.24414,3.70313 2.83632,2.01119 5.69012,3.99486 8.5498,5.97265 0.8897,0.63414 1.77939,1.26828 2.69605,1.92163 0.83893,0.57114 1.67787,1.14227 2.54223,1.73072 0.73904,0.51425 1.47807,1.02851 2.2395,1.55835 2.2471,1.11989 2.2471,1.11989 4.79175,0.1228 3.17221,-1.66746 6.1446,-3.57285 9.10547,-5.5835 0.64719,-0.43659 1.29438,-0.87318 1.96118,-1.323 13.34064,-9.06339 26.19309,-18.61936 38.60279,-28.92016 2.47942,-2.04807 4.99225,-4.05427 7.49853,-6.06934 4.91702,-4.02234 9.58386,-8.27339 14.23047,-12.60156 2.20358,-2.04678 4.45847,-4.0216 6.7373,-5.98413 4.09786,-3.58073 7.97658,-7.33864 11.81739,-11.19165 0.68235,-0.6814 1.3647,-1.36279 2.06773,-2.06484 1.43056,-1.42987 2.85987,-2.861 4.28798,-4.29332 2.16612,-2.17147 4.33753,-4.33756 6.50952,-6.50317 1.39941,-1.40007 2.79851,-2.80045 4.19727,-4.20117 0.9581,-0.95507 0.9581,-0.95507 1.93556,-1.92943 3.81024,-3.82979 7.43636,-7.77339 10.96422,-11.86505 1.93751,-2.24456 3.93826,-4.42845 5.94006,-6.61568 4.40213,-4.88465 8.50577,-9.95248 12.5625,-15.125 0.82113,-1.02609 1.64227,-2.05219 2.48828,-3.10937 6.89472,-8.63709 13.46494,-17.48903 19.83594,-26.51905 1.14504,-1.62047 2.29638,-3.23649 3.45312,-4.84863 1.73966,-2.432 3.45283,-4.88067 5.16016,-7.33545 0.53875,-0.74669 1.0775,-1.49338 1.63257,-2.26269 2.81358,-3.87439 2.81358,-3.87439 3.07446,-8.42871 C 431.10184,253.67239 430.55914,252.84867 430,252 c -0.35779,-0.58145 -0.71559,-1.16289 -1.08423,-1.76196 -1.34271,-2.1544 -2.7456,-4.25892 -4.16577,-6.36304 -0.52505,-0.78189 -1.0501,-1.56379 -1.59106,-2.36938 C 414.38614,228.55444 405.11279,215.93847 395,204 c -0.89235,-1.06605 -1.78425,-2.13248 -2.67578,-3.19922 -4.98679,-5.94895 -10.05999,-11.80082 -15.28516,-17.54297 -1.84023,-2.03765 -3.63086,-4.10787 -5.41406,-6.19531 -3.38382,-3.89772 -7.03759,-7.50761 -10.71167,-11.12768 -2.32956,-2.30697 -4.56986,-4.60996 -6.60083,-7.18482 -2.45724,-2.92212 -5.10815,-5.23177 -8.00781,-7.69922 -2.71096,-2.41229 -5.25919,-4.96723 -7.80469,-7.55078 -4.33736,-4.38372 -8.79899,-8.51102 -13.5,-12.5 -1.03856,-0.90141 -2.07625,-1.80385 -3.11328,-2.70703 -7.52261,-6.53225 -15.18523,-12.839 -23.08594,-18.90869 -1.19788,-0.92082 -2.39321,-1.84497 -3.58594,-2.77246 C 286.43046,99.788737 277.36492,93.442126 268.125,87.25 c -1.06525,-0.716315 -2.1305,-1.432631 -3.22803,-2.170654 -0.99467,-0.660403 -1.98934,-1.320805 -3.01416,-2.001221 -0.89316,-0.593935 -1.78631,-1.187871 -2.70654,-1.799804 -3.48443,-2.046725 -4.66448,-1.119687 -7.81689,0.995116 z M 69,273 c -25.99813,45.29344 -49.457742,100.78466 -39,154 0.9075,-0.165 1.815,-0.33 2.75,-0.5 13.934012,-1.91031 25.725053,0.28586 37.25,8.5 8.497468,7.33872 14.228951,16.85787 16,28 0.325993,6.4144 -0.04264,12.65748 -1,19 53.20341,10.4554 108.69169,-12.99333 154,-39 -3.74695,-4.00437 -7.68403,-6.98672 -12.25,-10 -21.25576,-14.32534 -41.0658,-30.8969 -59.84765,-48.3164 -1.87053,-1.72954 -3.75257,-3.44674 -5.64844,-5.14844 -6.54285,-5.88947 -12.8317,-12.00772 -19.06641,-18.22266 -0.80059,-0.79599 -1.60118,-1.59199 -2.42602,-2.41211 -4.22479,-4.23578 -8.28911,-8.54977 -12.19092,-13.08471 -2.25218,-2.60368 -4.59911,-5.10909 -6.94556,-7.62818 -4.23686,-4.59174 -8.27906,-9.29704 -12.19531,-14.16797 -1.79133,-2.2262 -3.59707,-4.43441 -5.42188,-6.63281 -8.684039,-10.50108 -16.669645,-21.41865 -24.531736,-32.54297 -0.96217,-1.36119 -1.925255,-2.72174 -2.889404,-4.08154 -0.871836,-1.23092 -1.740329,-2.46422 -2.60498,-3.7002 C 72.012326,275.69034 71.009849,274.34215 70,273 c -0.33,0 -0.66,0 -1,0 z m 373,0 c -1.18292,1.5134 -2.31911,3.06331 -3.4375,4.625 -0.72316,1.00547 -1.44633,2.01094 -2.19141,3.04688 -1.59601,2.23615 -3.18566,4.47674 -4.77343,6.71875 -14.36189,20.25694 -30.02688,39.49912 -46.91407,57.70703 -1.72953,1.87052 -3.44673,3.75256 -5.14843,5.64844 -5.88948,6.54285 -12.00772,12.8317 -18.22266,19.0664 -1.19399,1.20089 -1.19399,1.20089 -2.41211,2.42603 -4.23579,4.22478 -8.54977,8.2891 -13.08471,12.19092 -2.60368,2.25217 -5.10909,4.5991 -7.62818,6.94555 -4.59175,4.23687 -9.29704,8.27906 -14.16797,12.19531 -2.2262,1.79134 -4.43441,3.59708 -6.63281,5.42188 -9.13506,7.55439 -18.54489,14.61394 -28.21484,21.46777 -2.14469,1.52076 -4.28414,3.04859 -6.42188,4.5791 -3.24698,2.32458 -6.49733,4.64433 -9.75,6.96094 35.06161,29.59747 97.03806,45.19603 142,42 4.02676,-0.54358 8.01331,-1.21654 12,-2 -0.165,-1.11375 -0.33,-2.2275 -0.5,-3.375 -1.63523,-13.70707 0.50697,-25.17996 8.5,-36.625 0.72188,-1.05187 1.44375,-2.10375 2.1875,-3.1875 8.87075,-8.87074 19.1395,-12.90614 31.5625,-13.0625 4.49642,0.10719 8.82967,0.42761 13.25,1.25 11.54646,-52.38426 -13.45223,-109.49117 -39,-154 -0.33,0 -0.66,0 -1,0 z M 22,452 c -4.634182,7.17396 -6.856491,13.89399 -5.4375,22.4375 1.920281,7.41229 6.246249,13.29201 12.53125,17.58985 7.376061,3.7636 15.825612,4.52951 23.761719,2.09765 C 60.731356,490.50281 65.695361,485.00071 69,477 c 2.047184,-7.25819 1.347921,-14.29296 -2,-21 -5.169403,-7.40353 -11.135549,-12.10544 -20,-14 -9.556257,-0.82381 -18.736398,2.54106 -25,10 z m 425,1 c -3.91928,5.98719 -5.56859,11.83575 -5,19 2.11914,8.22224 5.18677,14.50996 12.11719,19.53516 6.99029,4.11396 13.93343,4.4976 21.88281,3.46484 3.02598,-0.93289 5.443,-2.1466 8,-4 0.82758,-0.59426 1.65516,-1.18851 2.50781,-1.80078 5.13648,-4.53265 7.92835,-10.82017 9.04688,-17.52344 0.34051,-8.46282 -1.63222,-14.95863 -7.0586,-21.48437 -5.28652,-5.10818 -12.37207,-7.60226 -19.55859,-8.62891 C 459.63711,442.94767 453.29215,445.79613 447,453 Z"
     fill="#d03ca4"
     id="path1" />
  <path
     d="m 346.51953,179.22266 c 6.20844,5.84737 11.09433,12.22996 11.61469,21.05322 0.006,1.25812 0.006,1.25812 0.0129,2.54166 0.0107,1.45063 0.0107,1.45063 0.0217,2.93057 0.003,1.0546 0.005,2.10919 0.008,3.19574 0.007,1.11594 0.0131,2.23187 0.0199,3.38162 0.0197,3.6962 0.0314,7.39236 0.0414,11.0886 0.004,1.26362 0.008,2.52725 0.0124,3.82917 0.0187,6.00038 0.0333,12.00074 0.0416,18.00114 0.01,6.90616 0.036,13.81201 0.0765,20.71806 0.0339,5.99716 0.0456,11.99417 0.0497,17.99143 0.005,2.54281 0.0165,5.08562 0.035,7.62837 0.0244,3.56611 0.0234,7.13138 0.0165,10.69755 0.0192,1.56367 0.0192,1.56367 0.0388,3.15893 -0.077,10.9165 -3.58328,18.43657 -11.10254,26.24878 -25.44821,24.45672 -64.99834,28.07156 -98.58203,27.5625 -30.29753,-0.85816 -65.08353,-7.05397 -86.91406,-29.875 -5.57457,-6.93115 -8.04253,-14.13603 -8.13135,-22.9187 -0.0115,-0.76833 -0.023,-1.53667 -0.0349,-2.32829 -0.0368,-2.55695 -0.0665,-5.11392 -0.0955,-7.67097 -0.0232,-1.80236 -0.0466,-3.60471 -0.0702,-5.40706 -0.0486,-3.80236 -0.0934,-7.60473 -0.1359,-11.40715 -0.0432,-3.83506 -0.0915,-7.66997 -0.14551,-11.50489 -0.5084,-36.21116 -0.5084,-36.21116 -0.11298,-54.20446 0.041,-1.96861 0.0657,-3.93753 0.0896,-5.90642 0.37761,-13.04874 4.37123,-21.03631 13.72647,-30.02706 41.68646,-38.57537 138.25209,-35.18241 179.5197,1.22266 z m -170.03516,13.06641 c -3.36827,3.88238 -5.66378,7.50371 -5.98437,12.77343 0.90942,7.1617 5.34068,11.32628 10.64062,15.85547 C 200.68835,235.15149 226.41314,239.06703 250,240 c 0.90879,0.0412 1.81758,0.0825 2.7539,0.125 28.33222,0.64483 61.4543,-4.33754 83.15235,-23.78125 3.17454,-3.55359 4.8601,-6.96782 5.65625,-11.65625 -1.01226,-6.6359 -4.27642,-10.734 -9.32813,-15.05078 -37.52382,-27.4959 -120.49016,-31.8274 -155.75,2.65235 z M 171,235 c -0.17603,3.9786 -0.28143,7.95618 -0.375,11.9375 -0.0503,1.11698 -0.10055,2.23395 -0.15234,3.38477 -0.13924,7.91297 1.18163,12.75858 6.52734,18.67773 14.14753,13.43181 38.16696,19.0297 57,21 0.9075,0.10957 1.815,0.21914 2.75,0.33204 30.15714,3.14136 67.51282,0.40794 93.25,-17.33204 7.85336,-6.54193 7.85336,-6.54193 11.22705,-15.74902 -0.0105,-1.02642 -0.021,-2.05283 -0.0317,-3.11035 -0.006,-1.11504 -0.0129,-2.23008 -0.0195,-3.37891 -0.0168,-1.15887 -0.0335,-2.31773 -0.0508,-3.51172 -0.009,-1.17433 -0.0181,-2.34867 -0.0273,-3.55859 -0.0236,-2.89734 -0.0565,-5.79427 -0.0977,-8.69141 -0.68965,0.39889 -1.3793,0.79777 -2.08984,1.20874 -24.55916,14.06671 -52.20757,19.38449 -80.26465,19.18238 -2.64538,-0.0161 -5.28924,-2e-5 -7.93457,0.019 -26.43766,0.0319 -53.84275,-4.96991 -76.55078,-19.08985 C 172.27974,234.91308 172.27974,234.91308 171,235 Z m 0,51 c -0.17603,3.9786 -0.28143,7.95618 -0.375,11.9375 -0.0503,1.11698 -0.10055,2.23395 -0.15234,3.38477 -0.1394,7.92233 1.18079,12.75268 6.52734,18.67773 20.29383,19.62794 55.71092,22.50608 82.30884,22.28321 C 284.70083,341.8027 315.42762,337.7811 335,320 c 5.39633,-5.87435 6.66637,-10.77611 6.52734,-18.67773 -0.0503,-1.11697 -0.10054,-2.23395 -0.15234,-3.38477 -0.0271,-1.15177 -0.0541,-2.30355 -0.082,-3.49023 C 341.22282,291.62952 341.12458,288.81579 341,286 c -1.34578,0.76184 -1.34578,0.76184 -2.71875,1.53907 C 297.40739,310.26524 246.59262,312.2695 202,300 c -10.31025,-3.09029 -19.68161,-7.6647 -29,-13 -0.66,-0.33 -1.32,-0.66 -2,-1 z"
     fill="#ef14e0"
     id="path2" />
</svg>
