<?xml version="1.0" encoding="UTF-8"?>
<svg version="1.1" xmlns="http://www.w3.org/2000/svg" width="512" height="512">
<path d="M0 0 C2.87457016 2.06298842 5.29158735 4.00831919 7.48046875 6.8046875 C9.65628437 8.90396496 9.65628437 8.90396496 12.875 8.2734375 C14.21733574 7.95566076 15.55699198 7.6264584 16.89453125 7.2890625 C38.86694293 2.7757474 63.00391824 4.60567764 84.70703125 9.5390625 C85.64627441 9.74805176 86.58551758 9.95704102 87.55322266 10.17236328 C121.43056236 17.89147038 157.52153553 31.96391122 186.33984375 51.625 C188.73688704 52.79336074 188.73688704 52.79336074 191.51171875 51.98046875 C195.38566629 50.23293007 199.02849015 48.22411265 202.70703125 46.1015625 C243.00515329 23.41155251 287.75279558 5.38616181 334.58203125 5.2890625 C335.68303162 5.28306534 335.68303162 5.28306534 336.80627441 5.27694702 C346.2181525 5.24055758 355.38864972 5.45496563 364.54248047 7.91113281 C366.64586994 8.48266483 366.64586994 8.48266483 369.70703125 8.5390625 C372.48809858 6.37265228 372.48809858 6.37265228 374.70703125 3.5390625 C385.63578227 -5.26071105 397.10736679 -6.61281228 410.70703125 -5.4609375 C421.6857294 -3.72517495 431.92643949 2.7983425 438.70703125 11.5390625 C446.05227345 23.98916802 447.82243293 36.76864596 445.0234375 51.01953125 C442.75538776 57.69192655 439.03951114 63.93053514 433.44140625 68.3125 C431.34212879 70.48831562 431.34212879 70.48831562 431.97265625 73.70703125 C432.29043299 75.04936699 432.61963535 76.38902323 432.95703125 77.7265625 C437.46671598 99.68130023 435.66505557 123.85566966 430.70703125 145.5390625 C430.48740723 146.50489258 430.2677832 147.47072266 430.04150391 148.46582031 C423.74721419 175.4337113 413.32875454 200.48378033 401.01953125 225.2265625 C400.23618408 226.80171631 400.23618408 226.80171631 399.43701172 228.40869141 C396.22463104 234.77390817 392.75119883 240.8074072 388.82104492 246.76098633 C387.39793376 249.55124962 387.39793376 249.55124962 388.41186523 252.68676758 C389.94108807 256.05451694 391.7057187 259.2326685 393.58203125 262.4140625 C416.69261493 302.80278564 434.84764664 348.33413833 434.95703125 395.4140625 C434.96169403 396.14872742 434.96635681 396.88339233 434.97116089 397.64031982 C435.01402622 406.34091249 434.69306269 414.63839075 432.76953125 423.1640625 C431.57037721 428.07959536 431.57037721 428.07959536 432.890625 432.8125 C434.66588196 434.58014054 434.66588196 434.58014054 436.71875 435.9765625 C442.03558817 440.15482433 444.19966941 448.20947671 445.70703125 454.5390625 C445.99282159 457.31657675 446.04160758 460.0607992 446.01953125 462.8515625 C446.01107178 463.97413452 446.01107178 463.97413452 446.00244141 465.11938477 C445.73866875 477.18371917 441.17538784 487.00230177 432.95703125 495.8515625 C428.73398309 499.85617714 424.07665887 502.36764569 418.70703125 504.5390625 C417.81628906 504.90515625 416.92554688 505.27125 416.0078125 505.6484375 C405.33761534 508.52749662 391.39308581 507.99269598 381.70703125 502.5390625 C377.98418493 500.16709568 374.66863098 497.7952063 371.97265625 494.2734375 C369.72232162 492.15136874 369.72232162 492.15136874 366.25 492.8046875 C364.79551236 493.12079112 363.34385523 493.45007018 361.89453125 493.7890625 C307.4411912 504.33296297 246.37020644 481.7775032 200.296875 453.9296875 C199.6562915 453.54312988 199.01570801 453.15657227 198.35571289 452.75830078 C196.72627633 451.75305169 195.11781996 450.71400174 193.51171875 449.671875 C190.74546604 448.26124938 190.74546604 448.26124938 187.80078125 449.0859375 C184.20329816 450.7756644 180.75812748 452.65656768 177.33203125 454.6640625 C169.91941766 458.9151745 162.39344586 462.83522783 154.70605469 466.56396484 C152.7534783 467.51640623 150.81222302 468.48932978 148.87109375 469.46484375 C129.18382023 479.20803524 108.11766766 486.65756098 86.70703125 491.5390625 C85.81113281 491.74789063 84.91523438 491.95671875 83.9921875 492.171875 C61.83959827 497.13656876 37.06093486 498.04775164 14.83642578 493.13256836 C11.86435844 492.56037948 10.17204151 492.29613473 7.44140625 493.72265625 C5.66580266 495.49654157 5.66580266 495.49654157 4.26953125 497.55078125 C0.09126942 502.86761942 -7.96338296 505.03170066 -14.29296875 506.5390625 C-17.070483 506.82485284 -19.81470545 506.87363883 -22.60546875 506.8515625 C-23.72804077 506.84310303 -23.72804077 506.84310303 -24.87329102 506.83447266 C-36.88842438 506.57177573 -46.66943568 502.02845301 -55.54296875 493.9140625 C-65.40978164 483.54690413 -66.76848403 472.09005584 -66.5703125 458.55078125 C-66.21198422 448.95792316 -62.62162181 441.64297556 -56.29296875 434.5390625 C-55.5453125 433.95382812 -54.79765625 433.36859375 -54.02734375 432.765625 C-51.92806629 430.58980938 -51.92806629 430.58980938 -52.55859375 427.37109375 C-52.87640906 426.02876714 -53.20560947 424.689111 -53.54296875 423.3515625 C-64.67323469 369.11378233 -41.58324317 307.14426747 -13.74609375 261.25 C-13.36138916 260.61368652 -12.97668457 259.97737305 -12.58032227 259.32177734 C-11.56253918 257.67208765 -10.51304238 256.04207779 -9.4609375 254.4140625 C-8.00854592 251.58430672 -8.00854592 251.58430672 -8.8515625 248.59375 C-10.46326234 245.17816932 -12.25110668 241.91366035 -14.16796875 238.6640625 C-37.3131462 198.26877139 -55.43354881 152.7591902 -55.54296875 105.6640625 C-55.54763153 104.92939758 -55.55229431 104.19473267 -55.55709839 103.43780518 C-55.59996372 94.73721251 -55.27900019 86.43973425 -53.35546875 77.9140625 C-52.15631471 72.99852964 -52.15631471 72.99852964 -53.4765625 68.265625 C-55.25181946 66.49798446 -55.25181946 66.49798446 -57.3046875 65.1015625 C-62.61955893 60.92484624 -64.79019836 52.86791051 -66.29296875 46.5390625 C-67.96490306 30.88754042 -64.61591447 18.95879147 -54.7734375 6.63671875 C-41.69577176 -7.90462734 -16.23544152 -10.34421657 0 0 Z M-42.29296875 18.5390625 C-47.93786334 24.63024149 -49.95599488 31.31690002 -50.29296875 39.5390625 C-49.68950305 46.63581911 -46.32454634 52.86403389 -41.23046875 57.7265625 C-35.19557942 62.51329775 -28.31605083 64.97752833 -20.60546875 64.5390625 C-11.88401448 63.25066585 -6.63103812 59.71933607 -0.9921875 52.97265625 C2.93209005 47.35236909 4.43863829 41.36739485 3.70703125 34.5390625 C1.92037381 26.33532707 -2.03812385 19.52939438 -8.98046875 14.6640625 C-20.55309022 8.14894163 -32.49714001 9.97691896 -42.29296875 18.5390625 Z M385.6328125 16.5625 C379.63029492 22.72329897 376.22712199 29.23413696 375.39453125 37.7265625 C376.05773938 45.81770166 379.52624779 53.20049569 385.70703125 58.5390625 C392.37765307 63.00547885 398.55493619 65.51955503 406.70703125 64.5390625 C414.694143 62.43452194 421.39669554 58.40170252 426.08984375 51.5078125 C429.64311137 44.64975752 429.95657356 37.12921791 427.94140625 29.7265625 C425.25687357 22.56780868 421.75533946 17.52803437 415.109375 13.6171875 C404.94900663 9.05741243 394.33128331 9.48518707 385.6328125 16.5625 Z M18.70703125 24.5390625 C18.95453125 25.9003125 18.95453125 25.9003125 19.20703125 27.2890625 C20.96605477 40.36359552 19.30899822 52.70757756 11.3203125 63.55078125 C10.78792969 64.20691406 10.25554687 64.86304688 9.70703125 65.5390625 C9.20558594 66.16425781 8.70414063 66.78945312 8.1875 67.43359375 C0.90597824 75.56551221 -10.00400915 80.05910709 -20.7890625 80.68359375 C-26.0383478 80.77148133 -31.10457326 80.30771368 -36.29296875 79.5390625 C-46.74836506 132.74247155 -23.29963795 188.23074668 2.70703125 233.5390625 C6.71140444 229.7921133 9.69375227 225.85502809 12.70703125 221.2890625 C27.03237168 200.03330125 43.6039331 180.2232608 61.0234375 161.44140625 C62.75297489 159.57088765 64.4701715 157.68884444 66.171875 155.79296875 C72.06134766 149.25011853 78.17959241 142.96126743 84.39453125 136.7265625 C85.58852539 135.52567993 85.58852539 135.52567993 86.80664062 134.30053711 C91.04242788 130.07575304 95.35641618 126.0114373 99.89135742 122.10961914 C102.49503269 119.85744178 105.00044417 117.51051285 107.51953125 115.1640625 C112.11127806 110.92719833 116.81657239 106.88500367 121.6875 102.96875 C123.91370285 101.17741989 126.12191241 99.37167947 128.3203125 97.546875 C137.4553703 89.99248754 146.86520598 82.932936 156.53515625 76.07910156 C158.67984297 74.55834124 160.81929686 73.03051412 162.95703125 71.5 C166.20401312 69.17542897 169.45436489 66.85567214 172.70703125 64.5390625 C140.60361713 37.43877786 84.77630691 22.19721015 43.39453125 22.1640625 C41.43700928 22.16140381 41.43700928 22.16140381 39.43994141 22.15869141 C32.3080261 22.2424447 25.62947026 22.78140012 18.70703125 24.5390625 Z M275.70703125 32.5390625 C274.87220215 32.80589844 274.03737305 33.07273437 273.17724609 33.34765625 C249.9216659 40.87880676 228.09942694 51.81720185 206.70703125 63.5390625 C210.45398045 67.54343569 214.39106566 70.52578352 218.95703125 73.5390625 C240.2127925 87.86440293 260.02283295 104.43596435 278.8046875 121.85546875 C280.6752061 123.58500614 282.55724931 125.30220275 284.453125 127.00390625 C290.99597522 132.89337891 297.28482632 139.01162366 303.51953125 145.2265625 C304.72041382 146.42055664 304.72041382 146.42055664 305.94555664 147.63867188 C310.17034071 151.87445913 314.23465645 156.18844743 318.13647461 160.72338867 C320.38865197 163.32706394 322.7355809 165.83247542 325.08203125 168.3515625 C329.31889542 172.94330931 333.36109008 177.64860364 337.27734375 182.51953125 C339.06867386 184.7457341 340.87441428 186.95394366 342.69921875 189.15234375 C350.25360621 198.28740155 357.31315775 207.69723723 364.16699219 217.3671875 C365.68775251 219.51187422 367.21557963 221.65132811 368.74609375 223.7890625 C371.07066478 227.03604437 373.39042161 230.28639614 375.70703125 233.5390625 C405.30449524 198.47745131 420.90305572 136.50100675 417.70703125 91.5390625 C417.16345245 87.51230276 416.49048548 83.52575366 415.70703125 79.5390625 C414.34578125 79.7865625 414.34578125 79.7865625 412.95703125 80.0390625 C399.74210392 81.81697441 387.52066328 80.05526027 376.5625 72.03125 C367.22438405 64.52143886 362.09557683 55.23611145 359.70703125 43.5390625 C359.16030099 37.12460743 359.55718657 30.86320826 360.70703125 24.5390625 C331.92628 18.88314372 303.27635364 23.65567321 275.70703125 32.5390625 Z M185.06640625 76.8125 C183.96570801 77.54738647 183.96570801 77.54738647 182.84277344 78.29711914 C181.66183105 79.0975061 181.66183105 79.0975061 180.45703125 79.9140625 C179.6465332 80.4598999 178.83603516 81.0057373 178.00097656 81.56811523 C165.86388295 89.77534117 154.12860897 98.3615664 142.70703125 107.5390625 C141.77246094 108.28929687 140.83789062 109.03953125 139.875 109.8125 C125.17095345 121.73935474 110.90819614 134.15529655 97.625 147.65625 C96.00043289 149.2510389 94.36338381 150.68957175 92.58203125 152.1015625 C89.62037828 154.61252915 87.26624451 157.28655025 84.7578125 160.234375 C82.34551548 162.94533736 79.7905744 165.49356408 77.20703125 168.0390625 C72.82330468 172.3764199 68.69601172 176.83805306 64.70703125 181.5390625 C63.80561488 182.57762856 62.90318116 183.61531207 62 184.65234375 C55.46774436 192.17494953 49.16099753 199.83757307 43.09130859 207.73828125 C42.17048643 208.93616208 41.24634026 210.13149523 40.31884766 211.32421875 C33.52127625 220.07576706 27.10634856 229.09367856 20.83203125 238.2265625 C20.09895752 239.2666748 19.36588379 240.30678711 18.6105957 241.37841797 C17.94374756 242.36342285 17.27689941 243.34842773 16.58984375 244.36328125 C15.98543457 245.24072998 15.38102539 246.11817871 14.75830078 247.0222168 C13.41542678 249.51791392 13.41542678 249.51791392 14.40649414 252.16650391 C16.12253085 255.29705482 18.01572937 258.27576645 20.01953125 261.2265625 C20.67441528 262.19734741 20.67441528 262.19734741 21.3425293 263.18774414 C30.40592212 276.52838619 39.96189704 289.38082747 50.26269531 301.79052734 C52.31076642 304.26995352 54.31696816 306.78278296 56.33203125 309.2890625 C60.35437375 314.20608045 64.60542197 318.8729204 68.93359375 323.51953125 C70.97609771 325.71840832 72.94623659 327.96867169 74.90405273 330.24316406 C78.55681121 334.42338625 82.39785849 338.37474532 86.328125 342.29296875 C87.03171646 342.99751694 87.73530792 343.70206512 88.46022034 344.42796326 C89.93717773 345.90559617 91.41537867 347.38198707 92.89477539 348.85717773 C95.1386821 351.09572731 97.37719829 353.33956723 99.61523438 355.58398438 C101.06087743 357.02896654 102.5068307 358.47363842 103.953125 359.91796875 C104.61171005 360.57857803 105.2702951 361.23918732 105.94883728 361.91981506 C110.3744965 366.32359087 114.96846575 370.47534935 119.70703125 374.5390625 C120.80121708 375.4890816 121.89504412 376.43951434 122.98828125 377.390625 C136.61142056 389.1566358 150.46965323 400.47470893 165.22558594 410.80078125 C166.97827293 412.02855884 168.7258475 413.26365009 170.46972656 414.50390625 C173.30604751 416.51509811 176.15984981 418.49876704 179.01953125 420.4765625 C179.90922607 421.11070068 180.7989209 421.74483887 181.71557617 422.39819336 C182.55451416 422.96932861 183.39345215 423.54046387 184.2578125 424.12890625 C184.99684814 424.64316162 185.73588379 425.15741699 186.49731445 425.68725586 C188.74441421 426.80714575 188.74441421 426.80714575 191.2890625 425.81005859 C194.46127156 424.14259895 197.43365726 422.23720802 200.39453125 420.2265625 C201.04172119 419.78997314 201.68891113 419.35338379 202.35571289 418.90356445 C215.69635494 409.84017163 228.54879622 400.28419671 240.95849609 389.98339844 C243.43792227 387.93532733 245.95075171 385.92912559 248.45703125 383.9140625 C253.3740492 379.89172 258.04088915 375.64067178 262.6875 371.3125 C264.89108257 369.2657174 267.14597347 367.29089939 269.42480469 365.32836914 C273.52266282 361.74764095 277.40138298 357.98973394 281.2421875 354.13671875 C281.92453964 353.45532333 282.60689178 352.77392792 283.30992126 352.07188416 C284.74047562 350.64200509 286.16978892 349.21088339 287.59790039 347.77856445 C289.76402199 345.60708539 291.93543299 343.44099925 294.10742188 341.27539062 C295.50683112 339.87532048 296.90593009 338.47494012 298.3046875 337.07421875 C299.26279076 336.11915184 299.26279076 336.11915184 300.24024963 335.14479065 C304.05048774 331.31500149 307.67660955 327.3714037 311.20446777 323.27973938 C313.14198302 321.03518329 315.1427278 318.8512882 317.14453125 316.6640625 C321.54665942 311.77940764 325.65030024 306.71157927 329.70703125 301.5390625 C330.52816406 300.51296875 331.34929687 299.486875 332.1953125 298.4296875 C339.09002706 289.79260342 345.66025059 280.94066189 352.03125 271.91064453 C353.17628843 270.29017494 354.32763 268.67414562 355.484375 267.06201172 C357.2240347 264.63000933 358.93720225 262.18133504 360.64453125 259.7265625 C361.18327881 258.97987305 361.72202637 258.23318359 362.27709961 257.46386719 C365.09068322 253.589477 365.09068322 253.589477 365.3515625 249.03515625 C364.80886719 248.21144531 364.26617187 247.38773438 363.70703125 246.5390625 C363.34923584 245.95761475 362.99144043 245.37616699 362.62280273 244.77709961 C361.28008848 242.62269548 359.87720411 240.51818294 358.45703125 238.4140625 C357.93197998 237.63216553 357.40692871 236.85026855 356.8659668 236.04467773 C348.09316868 223.09349802 338.81982243 210.47752572 328.70703125 198.5390625 C327.81468407 197.47300775 326.92278077 196.40658135 326.03125 195.33984375 C321.0444625 189.39089144 315.97126392 183.53902314 310.74609375 177.796875 C308.90585914 175.75922058 307.11522567 173.68899863 305.33203125 171.6015625 C301.94821088 167.70384417 298.2944411 164.09395322 294.62036133 160.47387695 C292.29079518 158.16690836 290.05049799 155.86391525 288.01953125 153.2890625 C285.56229217 150.36694035 282.91137842 148.05728999 280.01171875 145.58984375 C277.30075639 143.17754673 274.75252967 140.62260565 272.20703125 138.0390625 C267.86967385 133.65533593 263.40804069 129.52804297 258.70703125 125.5390625 C257.66846519 124.63764613 256.63078168 123.73521241 255.59375 122.83203125 C248.07114422 116.29977561 240.40852068 109.99302878 232.5078125 103.92333984 C231.30993167 103.00251768 230.11459852 102.07837151 228.921875 101.15087891 C220.13748566 94.32779896 211.07194502 87.9811879 201.83203125 81.7890625 C200.76678223 81.07274658 199.7015332 80.35643066 198.60400391 79.6184082 C197.60933105 78.95800537 196.6146582 78.29760254 195.58984375 77.6171875 C194.69668457 77.02325195 193.80352539 76.42931641 192.88330078 75.81738281 C189.39886574 73.77065835 188.21882218 74.69769611 185.06640625 76.8125 Z M2.70703125 267.5390625 C-23.29109947 312.83250274 -46.75071097 368.32371602 -36.29296875 421.5390625 C-35.38546875 421.3740625 -34.47796875 421.2090625 -33.54296875 421.0390625 C-19.60895713 419.12875446 -7.81791585 421.32491838 3.70703125 429.5390625 C12.20449939 436.87778499 17.93598242 446.39693006 19.70703125 457.5390625 C20.03302447 463.95345859 19.66439277 470.19654246 18.70703125 476.5390625 C71.9104403 486.99445881 127.39871543 463.5457317 172.70703125 437.5390625 C168.96008205 433.53468931 165.02299684 430.55234148 160.45703125 427.5390625 C139.20127 413.21372207 119.39122955 396.64216065 100.609375 379.22265625 C98.7388564 377.49311886 96.85681319 375.77592225 94.9609375 374.07421875 C88.41808728 368.18474609 82.12923618 362.06650134 75.89453125 355.8515625 C75.09394287 355.05556641 74.29335449 354.25957031 73.46850586 353.43945312 C69.24372179 349.20366587 65.17940605 344.88967757 61.27758789 340.35473633 C59.02541053 337.75106106 56.6784816 335.24564958 54.33203125 332.7265625 C50.09516708 328.13481569 46.05297242 323.42952136 42.13671875 318.55859375 C40.34538864 316.3323909 38.53964822 314.12418134 36.71484375 311.92578125 C28.03080216 301.42470194 20.04519585 290.50712879 12.18310547 279.3828125 C11.22093508 278.02161599 10.25785015 276.6610653 9.29370117 275.30126953 C8.42186541 274.07034891 7.55337241 272.83705181 6.6887207 271.60107422 C5.71935739 270.22939949 4.71687951 268.88121126 3.70703125 267.5390625 C3.37703125 267.5390625 3.04703125 267.5390625 2.70703125 267.5390625 Z M375.70703125 267.5390625 C374.52411094 269.05245924 373.38791839 270.602371 372.26953125 272.1640625 C371.54636719 273.16953125 370.82320312 274.175 370.078125 275.2109375 C368.4821102 277.44708652 366.89245631 279.68767833 365.3046875 281.9296875 C350.94280452 302.18662909 335.27781251 321.4288127 318.390625 339.63671875 C316.66108761 341.50723735 314.943891 343.38928056 313.2421875 345.28515625 C307.35271484 351.82800647 301.23447009 358.11685757 295.01953125 364.3515625 C293.82553711 365.55244507 293.82553711 365.55244507 292.60742188 366.77758789 C288.37163462 371.00237196 284.05764632 375.0666877 279.52270508 378.96850586 C276.91902981 381.22068322 274.41361833 383.56761215 271.89453125 385.9140625 C267.30278444 390.15092667 262.59749011 394.19312133 257.7265625 398.109375 C255.50035965 399.90070511 253.29215009 401.70644553 251.09375 403.53125 C241.9586922 411.08563746 232.54885652 418.145189 222.87890625 424.99902344 C220.73421953 426.51978376 218.59476564 428.04761088 216.45703125 429.578125 C213.21004938 431.90269603 209.95969761 434.22245286 206.70703125 436.5390625 C241.76864244 466.13652649 303.745087 481.73508697 348.70703125 478.5390625 C352.73379099 477.9954837 356.72034009 477.32251673 360.70703125 476.5390625 C360.54203125 475.4253125 360.37703125 474.3115625 360.20703125 473.1640625 C358.57180208 459.45699447 360.7139986 447.98409896 368.70703125 436.5390625 C369.42890625 435.4871875 370.15078125 434.4353125 370.89453125 433.3515625 C379.76527839 424.48081536 390.0340251 420.44541612 402.45703125 420.2890625 C406.95345271 420.39624776 411.2866965 420.71667464 415.70703125 421.5390625 C427.2534936 369.15479576 402.25480037 312.04789149 376.70703125 267.5390625 C376.37703125 267.5390625 376.04703125 267.5390625 375.70703125 267.5390625 Z M-44.29296875 446.5390625 C-48.92715102 453.71301739 -51.14946021 460.43305141 -49.73046875 468.9765625 C-47.81018798 476.38884628 -43.48421962 482.26857477 -37.19921875 486.56640625 C-29.823158 490.33001102 -21.37360733 491.09592029 -13.4375 488.6640625 C-5.56161335 485.04186955 -0.59760753 479.53976691 2.70703125 471.5390625 C4.75421503 464.28086548 4.05495197 457.24610099 0.70703125 450.5390625 C-4.46237208 443.13552623 -10.4285179 438.4336216 -19.29296875 436.5390625 C-28.84922555 435.71524726 -38.02936688 439.08011677 -44.29296875 446.5390625 Z M380.70703125 447.5390625 C376.78774862 453.52625392 375.13843993 459.37481186 375.70703125 466.5390625 C377.8261656 474.76130379 380.89379549 481.04902255 387.82421875 486.07421875 C394.81451242 490.18817847 401.7576459 490.57181936 409.70703125 489.5390625 C412.73301289 488.60616988 415.15002818 487.3924607 417.70703125 485.5390625 C418.53460938 484.94480469 419.3621875 484.35054688 420.21484375 483.73828125 C425.35131524 479.20562694 428.14319425 472.91811382 429.26171875 466.21484375 C429.60223488 457.75201628 427.62949909 451.25621213 422.203125 444.73046875 C416.91660288 439.62228713 409.83104708 437.12820762 402.64453125 436.1015625 C393.34413932 437.48672726 386.9991833 440.33519046 380.70703125 447.5390625 Z " fill="#D03CA4" transform="translate(66.29296875,5.4609375)"/>
<path d="M0 0 C6.20844219 5.84736962 11.09433236 12.22995592 11.61468983 21.05321693 C11.62110005 22.31133973 11.62110005 22.31133973 11.62763977 23.59487915 C11.63837273 25.04551254 11.63837273 25.04551254 11.64932251 26.52545166 C11.65201141 27.58004578 11.65470032 28.63463989 11.6574707 29.72119141 C11.6640419 30.83712677 11.6706131 31.95306213 11.67738342 33.10281372 C11.6971068 36.79901192 11.70877776 40.49516948 11.71875 44.19140625 C11.72282553 45.45503368 11.72690105 46.71866112 11.73110008 48.02058029 C11.74980816 54.02096079 11.76437363 60.02131675 11.77271205 66.02171862 C11.78246967 72.92788539 11.80875393 79.83373039 11.84921294 86.73978388 C11.88313031 92.73694408 11.89486683 98.73394935 11.89891624 104.73121262 C11.90377867 107.27402298 11.91538274 109.81682999 11.93395424 112.35957718 C11.95837843 115.9256859 11.95737392 119.49096163 11.95043945 123.05712891 C11.96965454 124.620802 11.96965454 124.620802 11.98925781 126.21606445 C11.91222376 137.13255513 8.40597822 144.65262612 0.88671875 152.46484375 C-24.56149007 176.92156391 -64.11162246 180.53640279 -97.6953125 180.02734375 C-127.99284044 179.16917839 -162.77884198 172.97337283 -184.609375 150.15234375 C-190.18394043 143.22118673 -192.651896 136.01630984 -192.74072266 127.23364258 C-192.75222855 126.46530594 -192.76373444 125.6969693 -192.77558899 124.90534973 C-192.81242345 122.34839904 -192.84204886 119.79142527 -192.87109375 117.234375 C-192.89426153 115.43201927 -192.91765212 113.62966639 -192.94125366 111.82731628 C-192.98983149 108.02496478 -193.03468245 104.2225905 -193.07714844 100.42016602 C-193.12031448 96.58511539 -193.16869242 92.75019699 -193.22265625 88.9152832 C-193.73106158 52.70411471 -193.73106158 52.70411471 -193.33564377 34.71082115 C-193.29459822 32.74221442 -193.26996073 30.77328641 -193.2460022 28.80439758 C-192.86838882 15.75566497 -188.87476833 7.76809107 -179.51953125 -1.22265625 C-137.83323859 -39.79803154 -41.26760841 -36.4050685 0 0 Z M-170.03515625 13.06640625 C-173.40343321 16.94878864 -175.69893985 20.57012253 -176.01953125 25.83984375 C-175.11010992 33.00153672 -170.6788451 37.16611639 -165.37890625 41.6953125 C-145.83118377 55.92883173 -120.1063867 59.84436554 -96.51953125 60.77734375 C-95.61074219 60.81859375 -94.70195312 60.85984375 -93.765625 60.90234375 C-65.4334074 61.54717374 -32.31133428 56.56480361 -10.61328125 37.12109375 C-7.43873658 33.56749897 -5.75317863 30.15326722 -4.95703125 25.46484375 C-5.9692875 18.82894167 -9.23345036 14.73084508 -14.28515625 10.4140625 C-51.80897577 -17.08183973 -134.77532403 -21.41334118 -170.03515625 13.06640625 Z M-175.51953125 55.77734375 C-175.69555538 59.75594053 -175.80095793 63.73352181 -175.89453125 67.71484375 C-175.94480469 68.83181641 -175.99507812 69.94878906 -176.046875 71.09960938 C-176.18610624 79.01258504 -174.86523546 83.85818831 -169.51953125 89.77734375 C-155.37199719 103.20915096 -131.35257041 108.80703938 -112.51953125 110.77734375 C-111.61203125 110.88691406 -110.70453125 110.99648438 -109.76953125 111.109375 C-79.61239342 114.25074352 -42.25670515 111.51732008 -16.51953125 93.77734375 C-8.66617016 87.23541417 -8.66617016 87.23541417 -5.29248047 78.02832031 C-5.3029541 77.0019043 -5.31342773 75.97548828 -5.32421875 74.91796875 C-5.33066406 73.80292969 -5.33710938 72.68789062 -5.34375 71.5390625 C-5.36050781 70.38019531 -5.37726563 69.22132813 -5.39453125 68.02734375 C-5.40355469 66.85300781 -5.41257812 65.67867187 -5.421875 64.46875 C-5.44543062 61.57140839 -5.47832473 58.67447934 -5.51953125 55.77734375 C-6.20917969 56.17622803 -6.89882813 56.5751123 -7.609375 56.98608398 C-32.16852586 71.05279352 -59.81694394 76.3705675 -87.87402344 76.16845703 C-90.5194041 76.15234452 -93.16325798 76.1684442 -95.80859375 76.1875 C-122.24624829 76.21941036 -149.65134488 71.21758884 -172.359375 57.09765625 C-174.23978869 55.69042501 -174.23978869 55.69042501 -175.51953125 55.77734375 Z M-175.51953125 106.77734375 C-175.69555538 110.75594053 -175.80095793 114.73352181 -175.89453125 118.71484375 C-175.94480469 119.83181641 -175.99507812 120.94878906 -176.046875 122.09960938 C-176.18627089 130.02194237 -174.8660813 134.8522909 -169.51953125 140.77734375 C-149.22570055 160.40528313 -113.80861067 163.28341889 -87.21069336 163.06054688 C-61.81870043 162.58004468 -31.09190807 158.55843978 -11.51953125 140.77734375 C-6.1232044 134.90298968 -4.85315599 130.00123328 -4.9921875 122.09960938 C-5.04246094 120.98263672 -5.09273437 119.86566406 -5.14453125 118.71484375 C-5.17160156 117.56306641 -5.19867188 116.41128906 -5.2265625 115.22460938 C-5.29671401 112.40685692 -5.39495326 109.59312586 -5.51953125 106.77734375 C-6.8653125 107.53917969 -6.8653125 107.53917969 -8.23828125 108.31640625 C-49.11214398 131.04258434 -99.92691289 133.04683565 -144.51953125 120.77734375 C-154.82978053 117.68705494 -164.20113762 113.11263853 -173.51953125 107.77734375 C-174.17953125 107.44734375 -174.83953125 107.11734375 -175.51953125 106.77734375 Z " fill="#EF14E0" transform="translate(346.51953125,179.22265625)"/>
</svg>
